<?xml version="1.0" encoding="UTF-8" standalone="no"?>
<!DOCTYPE svg PUBLIC "-//W3C//DTD SVG 1.1//EN"
 "http://www.w3.org/Graphics/SVG/1.1/DTD/svg11.dtd">
<!-- Generated by graphviz version 2.38.0 (20140413.2041)
 -->
<!-- Title: %3 Pages: 1 -->
<svg width="735pt" height="603pt"
 viewBox="0.00 0.00 735.26 603.00" xmlns="http://www.w3.org/2000/svg" xmlns:xlink="http://www.w3.org/1999/xlink">
<g id="graph0" class="graph" transform="scale(1 1) rotate(0) translate(4 599)">
<title>%3</title>
<polygon fill="#3f3f3f" stroke="none" points="-4,4 -4,-599 731.26,-599 731.26,4 -4,4"/>
<text text-anchor="middle" x="363.63" y="-9.2" font-family="Times,serif" font-size="16.00" fill="white">Network Map</text>
<!-- R4 -->
<g id="node1" class="node"><title>R4</title>
<polygon fill="#006699" stroke="#006699" points="498.26,-99 422.26,-99 422.26,-26 498.26,-26 498.26,-99"/>
<text text-anchor="middle" x="460.26" y="-58.8" font-family="Helvetica,sans-Serif" font-size="14.00" fill="white">R4</text>
</g>
<!-- R5 -->
<g id="node6" class="node"><title>R5</title>
<polygon fill="#006699" stroke="#006699" points="375.26,-223 299.26,-223 299.26,-150 375.26,-150 375.26,-223"/>
<text text-anchor="middle" x="337.26" y="-182.8" font-family="Helvetica,sans-Serif" font-size="14.00" fill="white">R5</text>
</g>
<!-- R4&#45;&#45;R5 -->
<g id="edge7" class="edge"><title>R4&#45;&#45;R5</title>
<path fill="none" stroke="green" stroke-dasharray="5,2" d="M422.118,-69.4851C374.752,-77.7866 298.116,-94.3694 281.26,-117 269.882,-132.276 282.666,-148.824 298.873,-161.829"/>
<text text-anchor="middle" x="331.26" y="-120.8" font-family="Courier,monospace" font-size="14.00" fill="white"> &#160;&#160;&#160;&#160;&#160;&#160;&#160;&#160;&#160;&#160;&#160;</text>
<text text-anchor="middle" x="269.873" y="-150.629" font-family="Courier,monospace" font-size="14.00" fill="white">Eth 0/1</text>
<text text-anchor="middle" x="393.118" y="-58.2851" font-family="Courier,monospace" font-size="14.00" fill="white">Eth 0/1</text>
</g>
<!-- SW1 -->
<g id="node7" class="node"><title>SW1</title>
<polygon fill="#006699" stroke="#006699" points="504.76,-471 415.76,-471 415.76,-398 504.76,-398 504.76,-471"/>
<text text-anchor="middle" x="460.26" y="-430.8" font-family="Helvetica,sans-Serif" font-size="14.00" fill="white">SW1</text>
</g>
<!-- R4&#45;&#45;SW1 -->
<g id="edge6" class="edge"><title>R4&#45;&#45;SW1</title>
<path fill="none" stroke="green" stroke-dasharray="5,2" d="M494.913,-99.1375C498.725,-104.753 502.029,-110.774 504.26,-117 523.978,-172.018 523.978,-324.982 504.26,-380 502.029,-386.226 498.725,-392.247 494.913,-397.863"/>
<text text-anchor="middle" x="569.26" y="-244.8" font-family="Courier,monospace" font-size="14.00" fill="white"> &#160;&#160;&#160;&#160;&#160;&#160;&#160;&#160;&#160;&#160;&#160;</text>
<text text-anchor="middle" x="465.913" y="-386.663" font-family="Courier,monospace" font-size="14.00" fill="white">Eth 0/4</text>
<text text-anchor="middle" x="465.913" y="-102.937" font-family="Courier,monospace" font-size="14.00" fill="white">Eth 0/0</text>
</g>
<!-- R6 -->
<g id="node2" class="node"><title>R6</title>
<polygon fill="#006699" stroke="#006699" points="134.26,-471 58.2602,-471 58.2602,-398 134.26,-398 134.26,-471"/>
<text text-anchor="middle" x="96.2602" y="-430.8" font-family="Helvetica,sans-Serif" font-size="14.00" fill="white">R6</text>
</g>
<!-- R2 -->
<g id="node5" class="node"><title>R2</title>
<polygon fill="#006699" stroke="#006699" points="301.26,-347 225.26,-347 225.26,-274 301.26,-274 301.26,-347"/>
<text text-anchor="middle" x="263.26" y="-306.8" font-family="Helvetica,sans-Serif" font-size="14.00" fill="white">R2</text>
</g>
<!-- R6&#45;&#45;R2 -->
<g id="edge10" class="edge"><title>R6&#45;&#45;R2</title>
<path fill="none" stroke="green" stroke-dasharray="5,2" d="M124.002,-397.994C134.01,-386.58 145.904,-374.456 158.26,-365 178.569,-349.458 204.079,-336.338 224.869,-326.981"/>
<text text-anchor="middle" x="208.26" y="-368.8" font-family="Courier,monospace" font-size="14.00" fill="white"> &#160;&#160;&#160;&#160;&#160;&#160;&#160;&#160;&#160;&#160;&#160;</text>
<text text-anchor="middle" x="195.869" y="-330.781" font-family="Courier,monospace" font-size="14.00" fill="white">Eth 0/2</text>
<text text-anchor="middle" x="95.0023" y="-386.794" font-family="Courier,monospace" font-size="14.00" fill="white">Eth 0/1</text>
</g>
<!-- R1 -->
<g id="node3" class="node"><title>R1</title>
<polygon fill="#006699" stroke="#006699" points="376.26,-595 300.26,-595 300.26,-522 376.26,-522 376.26,-595"/>
<text text-anchor="middle" x="338.26" y="-554.8" font-family="Helvetica,sans-Serif" font-size="14.00" fill="white">R1</text>
</g>
<!-- R1&#45;&#45;SW1 -->
<g id="edge1" class="edge"><title>R1&#45;&#45;SW1</title>
<path fill="none" stroke="green" stroke-dasharray="5,2" d="M369.098,-521.981C378.834,-511.167 389.787,-499.396 400.26,-489 406.203,-483.101 412.656,-477.028 419.054,-471.187"/>
<text text-anchor="middle" x="450.26" y="-492.8" font-family="Courier,monospace" font-size="14.00" fill="white"> &#160;&#160;&#160;&#160;&#160;&#160;&#160;&#160;&#160;&#160;&#160;</text>
<text text-anchor="middle" x="390.054" y="-474.987" font-family="Courier,monospace" font-size="14.00" fill="white">Eth 0/1</text>
<text text-anchor="middle" x="340.098" y="-510.781" font-family="Courier,monospace" font-size="14.00" fill="white">Eth 0/0</text>
</g>
<!-- R3 -->
<g id="node4" class="node"><title>R3</title>
<polygon fill="#006699" stroke="#006699" points="621.26,-595 545.26,-595 545.26,-522 621.26,-522 621.26,-595"/>
<text text-anchor="middle" x="583.26" y="-554.8" font-family="Helvetica,sans-Serif" font-size="14.00" fill="white">R3</text>
</g>
<!-- R3&#45;&#45;SW1 -->
<g id="edge5" class="edge"><title>R3&#45;&#45;SW1</title>
<path fill="none" stroke="green" stroke-dasharray="5,2" d="M620.625,-521.815C627.616,-510.994 630.692,-499.261 623.26,-489 596.443,-451.973 543.182,-440.115 504.83,-436.554"/>
<text text-anchor="middle" x="677.26" y="-492.8" font-family="Courier,monospace" font-size="14.00" fill="white"> &#160;&#160;&#160;&#160;&#160;&#160;&#160;&#160;&#160;&#160;&#160;</text>
<text text-anchor="middle" x="533.83" y="-425.354" font-family="Courier,monospace" font-size="14.00" fill="white">Eth 0/3</text>
<text text-anchor="middle" x="591.625" y="-510.615" font-family="Courier,monospace" font-size="14.00" fill="white">Eth 0/0</text>
</g>
<!-- R2&#45;&#45;R6 -->
<g id="edge4" class="edge"><title>R2&#45;&#45;R6</title>
<path fill="none" stroke="green" stroke-dasharray="5,2" d="M224.813,-314.859C166.114,-320.872 58.4933,-335.684 35.2602,-365 22.2044,-381.474 38.8304,-399.171 58,-412.45"/>
<text text-anchor="middle" x="85.2602" y="-368.8" font-family="Courier,monospace" font-size="14.00" fill="white"> &#160;&#160;&#160;&#160;&#160;&#160;&#160;&#160;&#160;&#160;&#160;</text>
<text text-anchor="middle" x="29" y="-401.25" font-family="Courier,monospace" font-size="14.00" fill="white">Eth 0/1</text>
<text text-anchor="middle" x="195.813" y="-303.659" font-family="Courier,monospace" font-size="14.00" fill="white">Eth 0/2</text>
</g>
<!-- R2&#45;&#45;R5 -->
<g id="edge3" class="edge"><title>R2&#45;&#45;R5</title>
<path fill="none" stroke="green" stroke-dasharray="5,2" d="M301.349,-288.054C312.887,-279.601 324.329,-268.816 331.26,-256 336.598,-246.129 338.825,-234.272 339.506,-223.217"/>
<text text-anchor="middle" x="387.26" y="-244.8" font-family="Courier,monospace" font-size="14.00" fill="white"> &#160;&#160;&#160;&#160;&#160;&#160;&#160;&#160;&#160;&#160;&#160;</text>
<text text-anchor="middle" x="310.506" y="-227.017" font-family="Courier,monospace" font-size="14.00" fill="white">Eth 0/0</text>
<text text-anchor="middle" x="330.349" y="-276.854" font-family="Courier,monospace" font-size="14.00" fill="white">Eth 0/1</text>
</g>
<!-- R2&#45;&#45;SW1 -->
<g id="edge2" class="edge"><title>R2&#45;&#45;SW1</title>
<path fill="none" stroke="green" stroke-dasharray="5,2" d="M265.718,-347.317C268.188,-359.023 272.798,-371.249 281.26,-380 316.322,-416.255 374.833,-428.206 415.37,-432.001"/>
<text text-anchor="middle" x="331.26" y="-368.8" font-family="Courier,monospace" font-size="14.00" fill="white"> &#160;&#160;&#160;&#160;&#160;&#160;&#160;&#160;&#160;&#160;&#160;</text>
<text text-anchor="middle" x="386.37" y="-420.801" font-family="Courier,monospace" font-size="14.00" fill="white">Eth 0/2</text>
<text text-anchor="middle" x="236.718" y="-351.117" font-family="Courier,monospace" font-size="14.00" fill="white">Eth 0/0</text>
</g>
<!-- R5&#45;&#45;R4 -->
<g id="edge9" class="edge"><title>R5&#45;&#45;R4</title>
<path fill="none" stroke="green" stroke-dasharray="5,2" d="M371.808,-149.721C382.169,-139.115 393.612,-127.524 404.26,-117 410.189,-111.14 416.531,-104.98 422.738,-99.01"/>
<text text-anchor="middle" x="454.26" y="-120.8" font-family="Courier,monospace" font-size="14.00" fill="white"> &#160;&#160;&#160;&#160;&#160;&#160;&#160;&#160;&#160;&#160;&#160;</text>
<text text-anchor="middle" x="393.738" y="-102.81" font-family="Courier,monospace" font-size="14.00" fill="white">Eth 0/1</text>
<text text-anchor="middle" x="342.808" y="-138.521" font-family="Courier,monospace" font-size="14.00" fill="white">Eth 0/1</text>
</g>
<!-- R5&#45;&#45;R2 -->
<g id="edge8" class="edge"><title>R5&#45;&#45;R2</title>
<path fill="none" stroke="green" stroke-dasharray="5,2" d="M299.143,-195.129C274.001,-202.354 242.916,-215.976 227.26,-241 220.776,-251.364 223.45,-263.016 229.592,-273.73"/>
<text text-anchor="middle" x="277.26" y="-244.8" font-family="Courier,monospace" font-size="14.00" fill="white"> &#160;&#160;&#160;&#160;&#160;&#160;&#160;&#160;&#160;&#160;&#160;</text>
<text text-anchor="middle" x="200.592" y="-262.53" font-family="Courier,monospace" font-size="14.00" fill="white">Eth 0/1</text>
<text text-anchor="middle" x="270.143" y="-183.929" font-family="Courier,monospace" font-size="14.00" fill="white">Eth 0/0</text>
</g>
<!-- SW1&#45;&#45;R4 -->
<g id="edge14" class="edge"><title>SW1&#45;&#45;R4</title>
<path fill="none" stroke="green" stroke-dasharray="5,2" d="M504.945,-409.684C560.237,-376.662 644.228,-312.859 619.26,-241 596.991,-176.909 538.001,-122.089 498.477,-90.9637"/>
<text text-anchor="middle" x="672.26" y="-244.8" font-family="Courier,monospace" font-size="14.00" fill="white"> &#160;&#160;&#160;&#160;&#160;&#160;&#160;&#160;&#160;&#160;&#160;</text>
<text text-anchor="middle" x="527.477" y="-79.7637" font-family="Courier,monospace" font-size="14.00" fill="white">Eth 0/0</text>
<text text-anchor="middle" x="533.945" y="-398.484" font-family="Courier,monospace" font-size="14.00" fill="white">Eth 0/4</text>
</g>
<!-- SW1&#45;&#45;R1 -->
<g id="edge11" class="edge"><title>SW1&#45;&#45;R1</title>
<path fill="none" stroke="green" stroke-dasharray="5,2" d="M415.75,-435.01C373.741,-437.229 312.78,-447.958 282.26,-489 270.894,-504.284 283.678,-520.833 299.883,-533.836"/>
<text text-anchor="middle" x="332.26" y="-492.8" font-family="Courier,monospace" font-size="14.00" fill="white"> &#160;&#160;&#160;&#160;&#160;&#160;&#160;&#160;&#160;&#160;&#160;</text>
<text text-anchor="middle" x="270.883" y="-522.636" font-family="Courier,monospace" font-size="14.00" fill="white">Eth 0/0</text>
<text text-anchor="middle" x="386.75" y="-438.81" font-family="Courier,monospace" font-size="14.00" fill="white">Eth 0/1</text>
</g>
<!-- SW1&#45;&#45;R3 -->
<g id="edge13" class="edge"><title>SW1&#45;&#45;R3</title>
<path fill="none" stroke="green" stroke-dasharray="5,2" d="M489.214,-471.34C498.462,-482.168 508.975,-493.865 519.26,-504 527.306,-511.928 536.391,-519.992 545.134,-527.372"/>
<text text-anchor="middle" x="569.26" y="-492.8" font-family="Courier,monospace" font-size="14.00" fill="white"> &#160;&#160;&#160;&#160;&#160;&#160;&#160;&#160;&#160;&#160;&#160;</text>
<text text-anchor="middle" x="516.134" y="-516.172" font-family="Courier,monospace" font-size="14.00" fill="white">Eth 0/0</text>
<text text-anchor="middle" x="460.214" y="-475.14" font-family="Courier,monospace" font-size="14.00" fill="white">Eth 0/3</text>
</g>
<!-- SW1&#45;&#45;R2 -->
<g id="edge12" class="edge"><title>SW1&#45;&#45;R2</title>
<path fill="none" stroke="green" stroke-dasharray="5,2" d="M423.45,-397.694C410.709,-386.388 395.932,-374.404 381.26,-365 356.074,-348.856 325.208,-335.047 301.362,-325.503"/>
<text text-anchor="middle" x="452.26" y="-368.8" font-family="Courier,monospace" font-size="14.00" fill="white"> &#160;&#160;&#160;&#160;&#160;&#160;&#160;&#160;&#160;&#160;&#160;</text>
<text text-anchor="middle" x="330.362" y="-314.303" font-family="Courier,monospace" font-size="14.00" fill="white">Eth 0/0</text>
<text text-anchor="middle" x="394.45" y="-386.494" font-family="Courier,monospace" font-size="14.00" fill="white">Eth 0/2</text>
</g>
</g>
</svg>
