<?xml version="1.0" encoding="UTF-8" standalone="no"?>
<!DOCTYPE svg PUBLIC "-//W3C//DTD SVG 1.1//EN"
 "http://www.w3.org/Graphics/SVG/1.1/DTD/svg11.dtd">
<!-- Generated by graphviz version 2.38.0 (20140413.2041)
 -->
<!-- Title: %3 Pages: 1 -->
<svg width="526pt" height="355pt"
 viewBox="0.00 0.00 525.59 355.00" xmlns="http://www.w3.org/2000/svg" xmlns:xlink="http://www.w3.org/1999/xlink">
<g id="graph0" class="graph" transform="scale(1 1) rotate(0) translate(4 351)">
<title>%3</title>
<polygon fill="#333333" stroke="none" points="-4,4 -4,-351 521.587,-351 521.587,4 -4,4"/>
<text text-anchor="middle" x="258.793" y="-9.2" font-family="Times,serif" font-size="16.00" fill="white">Network Map</text>
<!-- R1 -->
<g id="node1" class="node"><title>R1</title>
<polygon fill="#006699" stroke="#006699" points="86.5865,-223 10.5865,-223 10.5865,-150 86.5865,-150 86.5865,-223"/>
<text text-anchor="middle" x="48.5865" y="-182.8" font-family="Helvetica,sans-Serif" font-size="14.00" fill="white">R1</text>
</g>
<!-- R3 -->
<g id="node2" class="node"><title>R3</title>
<polygon fill="#006699" stroke="#006699" points="209.587,-223 133.587,-223 133.587,-150 209.587,-150 209.587,-223"/>
<text text-anchor="middle" x="171.587" y="-182.8" font-family="Helvetica,sans-Serif" font-size="14.00" fill="white">R3</text>
</g>
<!-- R5 -->
<g id="node4" class="node"><title>R5</title>
<polygon fill="#006699" stroke="#006699" points="147.587,-347 71.5865,-347 71.5865,-274 147.587,-274 147.587,-347"/>
<text text-anchor="middle" x="109.587" y="-306.8" font-family="Helvetica,sans-Serif" font-size="14.00" fill="white">R5</text>
</g>
<!-- R3&#45;&#45;R5 -->
<g id="edge7" class="edge"><title>R3&#45;&#45;R5</title>
<path fill="none" stroke="green" stroke-dasharray="5,2" d="M133.488,-209.732C122.773,-218.063 112.452,-228.576 106.587,-241 101.86,-251.011 100.964,-262.789 101.739,-273.728"/>
<text text-anchor="middle" x="156.587" y="-244.8" font-family="Courier,monospace" font-size="14.00" fill="white"> &#160;&#160;&#160;&#160;&#160;&#160;&#160;&#160;&#160;&#160;&#160;</text>
<text text-anchor="middle" x="76.7386" y="-262.528" font-family="Courier,monospace" font-size="14.00" fill="white">Eth0/0</text>
<text text-anchor="middle" x="108.488" y="-213.532" font-family="Courier,monospace" font-size="14.00" fill="white">Eth0/2</text>
</g>
<!-- R4 -->
<g id="node7" class="node"><title>R4</title>
<polygon fill="#006699" stroke="#006699" points="270.587,-347 194.587,-347 194.587,-274 270.587,-274 270.587,-347"/>
<text text-anchor="middle" x="232.587" y="-306.8" font-family="Helvetica,sans-Serif" font-size="14.00" fill="white">R4</text>
</g>
<!-- R3&#45;&#45;R4 -->
<g id="edge6" class="edge"><title>R3&#45;&#45;R4</title>
<path fill="none" stroke="green" stroke-dasharray="5,2" d="M199.867,-223.045C203.785,-228.854 207.513,-234.955 210.587,-241 215.794,-251.244 220.1,-262.971 223.48,-273.794"/>
<text text-anchor="middle" x="267.587" y="-244.8" font-family="Courier,monospace" font-size="14.00" fill="white"> &#160;&#160;&#160;&#160;&#160;&#160;&#160;&#160;&#160;&#160;&#160;</text>
<text text-anchor="middle" x="198.48" y="-262.594" font-family="Courier,monospace" font-size="14.00" fill="white">Eth0/0</text>
<text text-anchor="middle" x="174.867" y="-226.845" font-family="Courier,monospace" font-size="14.00" fill="white">Eth0/1</text>
</g>
<!-- SW1 -->
<g id="node3" class="node"><title>SW1</title>
<polygon fill="#006699" stroke="#006699" points="277.087,-99 188.087,-99 188.087,-26 277.087,-26 277.087,-99"/>
<text text-anchor="middle" x="232.587" y="-58.8" font-family="Helvetica,sans-Serif" font-size="14.00" fill="white">SW1</text>
</g>
<!-- SW1&#45;&#45;R1 -->
<g id="edge1" class="edge"><title>SW1&#45;&#45;R1</title>
<path fill="none" stroke="green" stroke-dasharray="5,2" d="M187.945,-65.8524C149.821,-70.2939 96.2679,-82.7171 64.5865,-117 56.3809,-125.879 52.129,-138.135 50,-149.829"/>
<text text-anchor="middle" x="114.587" y="-120.8" font-family="Courier,monospace" font-size="14.00" fill="white"> &#160;&#160;&#160;&#160;&#160;&#160;&#160;&#160;&#160;&#160;&#160;</text>
<text text-anchor="middle" x="25" y="-138.629" font-family="Courier,monospace" font-size="14.00" fill="white">Eth0/0</text>
<text text-anchor="middle" x="162.945" y="-54.6524" font-family="Courier,monospace" font-size="14.00" fill="white">Eth0/1</text>
</g>
<!-- SW1&#45;&#45;R3 -->
<g id="edge3" class="edge"><title>SW1&#45;&#45;R3</title>
<path fill="none" stroke="green" stroke-dasharray="5,2" d="M187.93,-95.2384C181.73,-101.702 176.241,-109.003 172.587,-117 167.99,-127.061 166.601,-138.852 166.695,-149.788"/>
<text text-anchor="middle" x="222.587" y="-120.8" font-family="Courier,monospace" font-size="14.00" fill="white"> &#160;&#160;&#160;&#160;&#160;&#160;&#160;&#160;&#160;&#160;&#160;</text>
<text text-anchor="middle" x="141.695" y="-138.588" font-family="Courier,monospace" font-size="14.00" fill="white">Eth0/0</text>
<text text-anchor="middle" x="162.93" y="-84.0384" font-family="Courier,monospace" font-size="14.00" fill="white">Eth0/3</text>
</g>
<!-- R6 -->
<g id="node5" class="node"><title>R6</title>
<polygon fill="#006699" stroke="#006699" points="332.587,-223 256.587,-223 256.587,-150 332.587,-150 332.587,-223"/>
<text text-anchor="middle" x="294.587" y="-182.8" font-family="Helvetica,sans-Serif" font-size="14.00" fill="white">R6</text>
</g>
<!-- SW1&#45;&#45;R6 -->
<g id="edge4" class="edge"><title>SW1&#45;&#45;R6</title>
<path fill="none" stroke="green" stroke-dasharray="5,2" d="M261.822,-99.2785C265.762,-105.007 269.502,-111.023 272.587,-117 277.856,-127.212 282.179,-138.931 285.556,-149.755"/>
<text text-anchor="middle" x="329.587" y="-120.8" font-family="Courier,monospace" font-size="14.00" fill="white"> &#160;&#160;&#160;&#160;&#160;&#160;&#160;&#160;&#160;&#160;&#160;</text>
<text text-anchor="middle" x="260.556" y="-138.555" font-family="Courier,monospace" font-size="14.00" fill="white">Eth0/1</text>
<text text-anchor="middle" x="236.822" y="-103.079" font-family="Courier,monospace" font-size="14.00" fill="white">Eth0/5</text>
</g>
<!-- R2 -->
<g id="node6" class="node"><title>R2</title>
<polygon fill="#006699" stroke="#006699" points="455.587,-223 379.587,-223 379.587,-150 455.587,-150 455.587,-223"/>
<text text-anchor="middle" x="417.587" y="-182.8" font-family="Helvetica,sans-Serif" font-size="14.00" fill="white">R2</text>
</g>
<!-- SW1&#45;&#45;R2 -->
<g id="edge2" class="edge"><title>SW1&#45;&#45;R2</title>
<path fill="none" stroke="green" stroke-dasharray="5,2" d="M277.137,-70.0766C309.892,-76.921 353.721,-90.5254 383.587,-117 393.422,-125.719 400.735,-137.939 406.006,-149.648"/>
<text text-anchor="middle" x="446.587" y="-120.8" font-family="Courier,monospace" font-size="14.00" fill="white"> &#160;&#160;&#160;&#160;&#160;&#160;&#160;&#160;&#160;&#160;&#160;</text>
<text text-anchor="middle" x="381.006" y="-138.448" font-family="Courier,monospace" font-size="14.00" fill="white">Eth0/0</text>
<text text-anchor="middle" x="302.137" y="-58.8766" font-family="Courier,monospace" font-size="14.00" fill="white">Eth0/2</text>
</g>
<!-- SW2 -->
<g id="node8" class="node"><title>SW2</title>
<polygon fill="#006699" stroke="#006699" points="462.087,-347 373.087,-347 373.087,-274 462.087,-274 462.087,-347"/>
<text text-anchor="middle" x="417.587" y="-306.8" font-family="Helvetica,sans-Serif" font-size="14.00" fill="white">SW2</text>
</g>
<!-- R2&#45;&#45;SW2 -->
<g id="edge5" class="edge"><title>R2&#45;&#45;SW2</title>
<path fill="none" stroke="green" stroke-dasharray="5,2" d="M417.587,-223.115C417.587,-239.01 417.587,-257.704 417.587,-273.629"/>
<text text-anchor="middle" x="467.587" y="-244.8" font-family="Courier,monospace" font-size="14.00" fill="white"> &#160;&#160;&#160;&#160;&#160;&#160;&#160;&#160;&#160;&#160;&#160;</text>
<text text-anchor="middle" x="388.587" y="-262.429" font-family="Courier,monospace" font-size="14.00" fill="white">Eth0/11</text>
<text text-anchor="middle" x="392.587" y="-226.915" font-family="Courier,monospace" font-size="14.00" fill="white">Eth0/1</text>
</g>
</g>
</svg>
